# xmcd
#
# Track frame offsets: 
#        183
#        14863
#        25858
#        36503
#        47528
#        57805
#        66923
#        81108
#        94353
#        109583
#        124000
#        134523
#        147848
#        158655
#        172325
#        185620
#        198563
#        207213
#        218173
#        234900
#        245180
#        263228
#
# Disc length: 3580 seconds
#
# Revision: 3
# Processed by: cddbd v1.5.2PL0 Copyright (c) Steve Scherf et al.
# Submitted via: ExactAudioCopyFreeDBPlugin 1.0
#
DISCID=4d0dfa16
DTITLE=Otis Redding - It's Not Just Sentimental
DYEAR=1991
DGENRE=Soul
TTITLE0=Trick or Treat
TTITLE1=Loving By the Pound
TTITLE2=There Goes My Baby
TTITLE3=Remember Me
TTITLE4=Send Me Some Lovin'
TTITLE5=She's All Right
TTITLE6=Cupid
TTITLE7=The Boston Monkey
TTITLE8=Don't Be Afraid of Love
TTITLE9=Little Ol' Me
TTITLE10=Lbs and 100s
TTITLE11=You Got Good Lovin'
TTITLE12=Gone Again
TTITLE13=I'm Coming Home
TTITLE14=(Sittin' on The) Dock of the Bay (alternate Take 1)
TTITLE15=(Sittin' on The) Dock of the Bay (alternate Take 2)
TTITLE16=Respect
TTITLE17=Open the Door
TTITLE18=I've Got Dreams to Remember
TTITLE19=Come to Me
TTITLE20=Try a Little Tenderness
TTITLE21=Stay in School
EXTD=YEAR: 1991
EXTT0=
EXTT1=
EXTT2=
EXTT3=
EXTT4=
EXTT5=
EXTT6=
EXTT7=
EXTT8=
EXTT9=
EXTT10=
EXTT11=
EXTT12=
EXTT13=
EXTT14=
EXTT15=
EXTT16=
EXTT17=
EXTT18=
EXTT19=
EXTT20=
EXTT21=
PLAYORDER=
